<?xml version="1.0" encoding="UTF-8"?>
<svg version="1.1" xmlns="http://www.w3.org/2000/svg" width="110" height="98">
<path d="M0 0 C7.26960995 5.10682953 7.26960995 5.10682953 9.58984375 8.328125 C13.65716712 11.33209586 18.33381412 10.50531475 23.23046875 10.34375 C24.77734375 10.31667969 24.77734375 10.31667969 26.35546875 10.2890625 C28.89807939 10.24197712 31.43880037 10.1762305 33.98046875 10.09375 C33.98046875 11.08375 33.98046875 12.07375 33.98046875 13.09375 C32.84867187 13.22652344 31.716875 13.35929687 30.55078125 13.49609375 C29.06898696 13.6742842 27.58721739 13.85268029 26.10546875 14.03125 C25.35910156 14.11826172 24.61273438 14.20527344 23.84375 14.29492188 C19.78514565 14.72701063 19.78514565 14.72701063 15.98046875 16.09375 C16.48707031 17.07214844 16.48707031 17.07214844 17.00390625 18.0703125 C17.44992188 18.94429687 17.8959375 19.81828125 18.35546875 20.71875 C18.79632813 21.57726562 19.2371875 22.43578125 19.69140625 23.3203125 C24.49536258 33.65609733 25.06015657 47.41416574 21.35546875 58.28125 C18.15507527 65.48496253 13.84018732 71.80571129 7.98046875 77.09375 C7.49191406 77.57457031 7.00335938 78.05539063 6.5 78.55078125 C-2.72236854 87.20359734 -14.86195918 90.5962519 -27.27734375 90.26953125 C-37.63745898 89.6054213 -48.4126176 86.16948236 -56.24609375 79.078125 C-57.89453125 77.15625 -57.89453125 77.15625 -60.01953125 74.09375 C-56.95233104 74.70312753 -54.89388089 75.69640119 -52.33203125 77.46875 C-43.14210224 83.37900174 -31.92013414 85.46448301 -21.16015625 83.59765625 C-10.70545939 81.24932967 -0.74363481 76.70749499 5.640625 67.76953125 C12.74828971 56.36583333 15.60482919 45.20007375 12.79296875 31.78515625 C11.42788289 27.26330934 9.30788628 23.18893885 6.98046875 19.09375 C1.21627465 19.65108267 -3.52792182 21.2483226 -8.83203125 23.53125 C-9.65517822 23.88324463 -10.4783252 24.23523926 -11.32641602 24.59790039 C-25.40864267 30.76281911 -40.37002854 38.1979981 -51.21484375 49.3515625 C-53.01953125 51.09375 -53.01953125 51.09375 -55.01953125 51.09375 C-55.27863281 51.66480469 -55.53773437 52.23585937 -55.8046875 52.82421875 C-57.12455595 55.2899537 -58.67729241 57.25142642 -60.45703125 59.40625 C-64.37109712 64.38852968 -66.68282538 68.30390134 -67.45703125 74.71875 C-66.90944012 78.94302445 -66.22256919 80.2720261 -63.01953125 83.09375 C-59.75965618 84.65726375 -56.43914479 85.92559957 -53.01953125 87.09375 C-53.34953125 87.75375 -53.67953125 88.41375 -54.01953125 89.09375 C-62.08304779 88.79729719 -68.12369406 87.62963241 -74.70703125 82.875 C-77.83567093 78.62898901 -76.58022849 72.0638139 -76.01953125 67.09375 C-74.90616892 63.60306328 -73.21897331 61.00568738 -71.01953125 58.09375 C-70.07207031 56.78664063 -70.07207031 56.78664063 -69.10546875 55.453125 C-52.06457436 33.26897885 -25.13295334 21.10494734 0.98046875 13.09375 C-2.44895951 9.32958933 -5.34249541 7.18923298 -10.08203125 5.34375 C-11.10425781 4.93640625 -12.12648437 4.5290625 -13.1796875 4.109375 C-23.38827778 0.45843487 -35.25393288 0.87456567 -45.33984375 4.76953125 C-55.65140586 9.86518658 -63.46433137 18.41139218 -67.953125 28.9296875 C-69.94824021 34.84926009 -70.99786212 40.93881644 -72.01953125 47.09375 C-72.67953125 46.76375 -73.33953125 46.43375 -74.01953125 46.09375 C-74.5755613 30.64847071 -72.41353132 19.47614726 -61.796875 7.609375 C-46.07201188 -7.62967934 -18.92778267 -11.94923408 0 0 Z " fill="#E4651C" transform="translate(76.01953125,5.90625)"/>
<path d="M0 0 C6.76674013 7.10696729 8.55197421 17.45813337 8.4375 26.875 C8.42992676 27.75196533 8.42235352 28.62893066 8.41455078 29.5324707 C8.1094617 41.55231262 3.59949425 50.82619864 -4.4375 59.6875 C-5.283125 60.450625 -6.12875 61.21375 -7 62 C-7.48855469 62.48082031 -7.97710937 62.96164063 -8.48046875 63.45703125 C-17.70283729 72.10984734 -29.84242793 75.5025019 -42.2578125 75.17578125 C-52.61792773 74.5116713 -63.39308635 71.07573236 -71.2265625 63.984375 C-72.875 62.0625 -72.875 62.0625 -75 59 C-71.93279979 59.60937753 -69.87434964 60.60265119 -67.3125 62.375 C-58.12257099 68.28525174 -46.90060289 70.37073301 -36.140625 68.50390625 C-25.68592814 66.15557967 -15.72410356 61.61374499 -9.33984375 52.67578125 C-2.22602951 41.26221688 0.61425703 30.10477328 -2.1875 16.6796875 C-3.33550968 12.89346328 -5.04317267 9.53585443 -6.9765625 6.09375 C-8 4 -8 4 -8 1 C-4.99449319 -0.50275341 -3.33001693 -0.58765005 0 0 Z " fill="#030202" transform="translate(91,21)"/>
<path d="M0 0 C4.30189109 3.0220362 8.51407115 6.11381201 11.98046875 10.09375 C11.98046875 11.08375 11.98046875 12.07375 11.98046875 13.09375 C8.3063609 14.26946451 4.81117692 14.16741746 0.98046875 14.09375 C0.48546875 12.60875 0.48546875 12.60875 -0.01953125 11.09375 C-10.86142447 2.6830692 -22.70858893 0.94196738 -36.01953125 2.09375 C-47.84727409 4.39093011 -57.108545 11.33198193 -64.01953125 21.09375 C-68.85395248 29.25183582 -70.48687762 37.86044645 -72.01953125 47.09375 C-72.67953125 46.76375 -73.33953125 46.43375 -74.01953125 46.09375 C-74.5755613 30.64847071 -72.41353132 19.47614726 -61.796875 7.609375 C-46.07201188 -7.62967934 -18.92778267 -11.94923408 0 0 Z " fill="#050403" transform="translate(76.01953125,5.90625)"/>
<path d="M0 0 C1.18239258 0.00676758 1.18239258 0.00676758 2.38867188 0.01367188 C4.32164761 0.02538688 6.25458393 0.04332002 8.1875 0.0625 C8.1875 1.0525 8.1875 2.0425 8.1875 3.0625 C-0.7225 4.0525 -9.6325 5.0425 -18.8125 6.0625 C-18.8125 6.7225 -18.8125 7.3825 -18.8125 8.0625 C-19.66328125 8.31902344 -20.5140625 8.57554688 -21.390625 8.83984375 C-32.60629504 12.38351822 -43.16526309 17.08619783 -53.8125 22.0625 C-53.4825 21.0725 -53.1525 20.0825 -52.8125 19.0625 C-51.8225 18.7325 -50.8325 18.4025 -49.8125 18.0625 C-52.74888448 16.72484837 -52.74888448 16.72484837 -55.3125 18.0625 C-57.8125 19.0625 -57.8125 19.0625 -60.8125 18.0625 C-45.67165943 10.03357512 -31.25079409 3.11777193 -13.8125 3.0625 C-13.8125 2.4025 -13.8125 1.7425 -13.8125 1.0625 C-9.18790756 -0.11450048 -4.73383538 -0.05158412 0 0 Z " fill="#DC6426" transform="translate(101.8125,15.9375)"/>
<path d="M0 0 C1.18239258 0.00676758 1.18239258 0.00676758 2.38867188 0.01367188 C4.32164761 0.02538688 6.25458393 0.04332002 8.1875 0.0625 C8.1875 1.0525 8.1875 2.0425 8.1875 3.0625 C-0.7225 4.0525 -9.6325 5.0425 -18.8125 6.0625 C-18.8125 6.7225 -18.8125 7.3825 -18.8125 8.0625 C-21.1225 8.3925 -23.4325 8.7225 -25.8125 9.0625 C-26.1425 8.4025 -26.4725 7.7425 -26.8125 7.0625 C-28.82919827 5.92899466 -28.82919827 5.92899466 -30.8125 5.0625 C-28.72977106 4.72541092 -26.64628963 4.39296884 -24.5625 4.0625 C-23.40234375 3.876875 -22.2421875 3.69125 -21.046875 3.5 C-17.8125 3.0625 -17.8125 3.0625 -13.8125 3.0625 C-13.8125 2.4025 -13.8125 1.7425 -13.8125 1.0625 C-9.18790756 -0.11450048 -4.73383538 -0.05158412 0 0 Z " fill="#D36F33" transform="translate(101.8125,15.9375)"/>
<path d="M0 0 C1 3 1 3 0.8125 6.375 C0.75043841 9.96388789 0.75043841 9.96388789 2.375 12.6875 C6.11906839 15.98584596 10.32046194 17.40145551 15 19 C14.67 19.66 14.34 20.32 14 21 C7.0354432 20.74395012 0.78558731 20.20506346 -5 16 C-5.66 15.01 -6.32 14.02 -7 13 C-6.01 12.67 -5.02 12.34 -4 12 C-2.05662363 9.08493545 -1.72325333 8.17028308 -1.4375 4.875 C-1 1 -1 1 0 0 Z " fill="#E76616" transform="translate(8,74)"/>
<path d="M0 0 C0.8971875 0.5259375 0.8971875 0.5259375 1.8125 1.0625 C1.19375 1.330625 0.575 1.59875 -0.0625 1.875 C-2.4870233 3.01806848 -2.4870233 3.01806848 -4.1875 6.0625 C-5.5075 5.7325 -6.8275 5.4025 -8.1875 5.0625 C-8.5175 5.7225 -8.8475 6.3825 -9.1875 7.0625 C-10.5075 7.0625 -11.8275 7.0625 -13.1875 7.0625 C-13.1875 8.0525 -13.1875 9.0425 -13.1875 10.0625 C-15.1675 10.3925 -17.1475 10.7225 -19.1875 11.0625 C-19.1875 9.4125 -19.1875 7.7625 -19.1875 6.0625 C-17.79672699 5.24136823 -16.39961107 4.43097505 -15 3.625 C-14.22269531 3.17253906 -13.44539063 2.72007813 -12.64453125 2.25390625 C-10.12220779 1.03084002 -7.93922642 0.52637532 -5.1875 0.0625 C-2.1875 -0.9375 -2.1875 -0.9375 0 0 Z " fill="#E96017" transform="translate(51.1875,32.9375)"/>
<path d="M0 0 C0.33 1.32 0.66 2.64 1 4 C-10.33712984 8.77676538 -10.33712984 8.77676538 -17 7 C-17.33 7.66 -17.66 8.32 -18 9 C-18 8.01 -18 7.02 -18 6 C-16.02 5.67 -14.04 5.34 -12 5 C-12 4.34 -12 3.68 -12 3 C-4.71428571 -0.42857143 -4.71428571 -0.42857143 0 0 Z " fill="#DE6925" transform="translate(75,22)"/>
<path d="M0 0 C1.65 0.33 3.3 0.66 5 1 C2.71695215 3.42163542 0.29468033 5.35175667 -2.4375 7.25 C-3.19933594 7.79140625 -3.96117187 8.3328125 -4.74609375 8.890625 C-7 10 -7 10 -9.17578125 9.80078125 C-11.61267685 8.73105192 -12.5787138 7.20299361 -14 5 C-12.68 4.34 -11.36 3.68 -10 3 C-10 4.32 -10 5.64 -10 7 C-8.02 6.67 -6.04 6.34 -4 6 C-4 5.01 -4 4.02 -4 3 C-2.68 3 -1.36 3 0 3 C0 2.01 0 1.02 0 0 Z " fill="#D76928" transform="translate(42,37)"/>
<path d="M0 0 C2 3 2 3 2 5 C1.01 5 0.02 5 -1 5 C-1 5.99 -1 6.98 -1 8 C-2.98 8.33 -4.96 8.66 -7 9 C-7 7.35 -7 5.7 -7 4 C-4.69 2.68 -2.38 1.36 0 0 Z " fill="#E2671E" transform="translate(39,35)"/>
<path d="M0 0 C1.57043101 0.01330874 3.14079971 0.03717648 4.7109375 0.0703125 C5.51273438 0.07933594 6.31453125 0.08835937 7.140625 0.09765625 C9.12252273 0.12125027 11.10426731 0.15712185 13.0859375 0.1953125 C13.0859375 1.1853125 13.0859375 2.1753125 13.0859375 3.1953125 C7.6409375 3.6903125 7.6409375 3.6903125 2.0859375 4.1953125 C2.0859375 3.5353125 2.0859375 2.8753125 2.0859375 2.1953125 C-0.5540625 2.1953125 -3.1940625 2.1953125 -5.9140625 2.1953125 C-3.9140625 0.1953125 -3.9140625 0.1953125 0 0 Z " fill="#DF8654" transform="translate(96.9140625,15.8046875)"/>
<path d="M0 0 C0.99 0.33 1.98 0.66 3 1 C2.38998481 4.3327659 1.20748126 6.34768555 -0.875 9 C-1.38804688 9.66 -1.90109375 10.32 -2.4296875 11 C-3.20699219 11.99 -3.20699219 11.99 -4 13 C-5.00295556 14.33111153 -6.00382179 15.66380887 -7 17 C-7 15.02 -7 13.04 -7 11 C-5.68 10.34 -4.36 9.68 -3 9 C-3.33 7.68 -3.66 6.36 -4 5 C-2.35 4.67 -0.7 4.34 1 4 C0.67 2.68 0.34 1.36 0 0 Z " fill="#D4672A" transform="translate(16,57)"/>
<path d="M0 0 C5.94 2.475 5.94 2.475 12 5 C11.67 5.66 11.34 6.32 11 7 C9.22844346 6.88570603 7.45773771 6.75816963 5.6875 6.625 C4.70136719 6.55539063 3.71523437 6.48578125 2.69921875 6.4140625 C0 6 0 6 -3 4 C-1.02 4 0.96 4 3 4 C2.01 3.34 1.02 2.68 0 2 C0 1.34 0 0.68 0 0 Z " fill="#C26C3F" transform="translate(11,88)"/>
<path d="M0 0 C2 3 2 3 1.625 5.6875 C1.41875 6.450625 1.2125 7.21375 1 8 C-0.98 8.33 -2.96 8.66 -5 9 C-4.5206753 4.68607774 -3.2542015 2.83430453 0 0 Z " fill="#E86719" transform="translate(23,47)"/>
<path d="M0 0 C0.99386719 0.10183594 1.98773438 0.20367188 3.01171875 0.30859375 C3.77097656 0.39238281 4.53023437 0.47617187 5.3125 0.5625 C4.3225 1.0575 4.3225 1.0575 3.3125 1.5625 C3.3125 2.2225 3.3125 2.8825 3.3125 3.5625 C1.0025 3.8925 -1.3075 4.2225 -3.6875 4.5625 C-4.0175 3.9025 -4.3475 3.2425 -4.6875 2.5625 C-6.70419827 1.42899466 -6.70419827 1.42899466 -8.6875 0.5625 C-5.3763987 -0.54120043 -3.44001051 -0.36423641 0 0 Z " fill="#C55F25" transform="translate(79.6875,20.4375)"/>
<path d="M0 0 C2.31 0 4.62 0 7 0 C3.67513619 2.74054368 0.16942114 4.42376049 -3.75 6.1875 C-4.92046875 6.71730469 -6.0909375 7.24710938 -7.296875 7.79296875 C-8.18890625 8.19128906 -9.0809375 8.58960938 -10 9 C-9.67 8.01 -9.34 7.02 -9 6 C-6.93359375 5.05078125 -6.93359375 5.05078125 -4.4375 4.3125 C-3.61121094 4.06113281 -2.78492188 3.80976562 -1.93359375 3.55078125 C-1.29550781 3.36902344 -0.65742187 3.18726563 0 3 C0 2.01 0 1.02 0 0 Z " fill="#D46D34" transform="translate(58,29)"/>
<path d="M0 0 C0.66 0.33 1.32 0.66 2 1 C1.649375 1.7425 1.29875 2.485 0.9375 3.25 C-0.04509293 6.1322726 -0.0326802 7.21176345 1 10 C0.01 10.66 -0.98 11.32 -2 12 C-2.33 9.69 -2.66 7.38 -3 5 C-3.99 5 -4.98 5 -6 5 C-4.02 3.35 -2.04 1.7 0 0 Z " fill="#CF6525" transform="translate(26,43)"/>
<path d="M0 0 C1.32 0.33 2.64 0.66 4 1 C3.34 2.32 2.68 3.64 2 5 C-0.31 4.67 -2.62 4.34 -5 4 C-5.33 4.66 -5.66 5.32 -6 6 C-6 5.01 -6 4.02 -6 3 C-4.02 2.67 -2.04 2.34 0 2 C0 1.34 0 0.68 0 0 Z " fill="#E86217" transform="translate(63,25)"/>
<path d="M0 0 C1 3 1 3 0.9375 6.4375 C0.99585971 9.76400349 1.24937221 11.26464408 3 14 C1.68 14 0.36 14 -1 14 C-1.02685938 11.85423363 -1.04633088 9.70837355 -1.0625 7.5625 C-1.07410156 6.36753906 -1.08570313 5.17257813 -1.09765625 3.94140625 C-1 1 -1 1 0 0 Z " fill="#C96B32" transform="translate(8,74)"/>
<path d="M0 0 C1.2065625 0.0309375 1.2065625 0.0309375 2.4375 0.0625 C2.7675 1.0525 3.0975 2.0425 3.4375 3.0625 C1.4575 3.3925 -0.5225 3.7225 -2.5625 4.0625 C-2.8925 3.0725 -3.2225 2.0825 -3.5625 1.0625 C-2.5625 0.0625 -2.5625 0.0625 0 0 Z " fill="#E76417" transform="translate(72.5625,21.9375)"/>
<path d="M0 0 C-1 3 -1 3 -3.375 4.25 C-6 5 -6 5 -9 4 C-2.25 0 -2.25 0 0 0 Z " fill="#CE6B2E" transform="translate(50,30)"/>
<path d="M0 0 C2.16874252 0.50603992 3.99967627 0.99983813 6 2 C6 2.66 6 3.32 6 4 C6.99 4.33 7.98 4.66 9 5 C3.46153846 4.50769231 3.46153846 4.50769231 1.125 1.9375 C0.75375 1.298125 0.3825 0.65875 0 0 Z " fill="#D66328" transform="translate(1,87)"/>
<path d="" fill="#FFFFFF" transform="translate(0,0)"/>
<path d="" fill="#000000" transform="translate(0,0)"/>
<path d="" fill="#FFFFFF" transform="translate(0,0)"/>
<path d="" fill="#FFFFFF" transform="translate(0,0)"/>
<path d="" fill="#FFFFFF" transform="translate(0,0)"/>
<path d="" fill="#FFFFFF" transform="translate(0,0)"/>
<path d="" fill="#FFFFFF" transform="translate(0,0)"/>
<path d="" fill="#FFFFFF" transform="translate(0,0)"/>
<path d="" fill="#FFFFFF" transform="translate(0,0)"/>
<path d="" fill="#FFFFFF" transform="translate(0,0)"/>
<path d="" fill="#FFFFFF" transform="translate(0,0)"/>
<path d="" fill="#FFFFFF" transform="translate(0,0)"/>
<path d="" fill="#FFFFFF" transform="translate(0,0)"/>
<path d="" fill="#FFFFFF" transform="translate(0,0)"/>
<path d="" fill="#FFFFFF" transform="translate(0,0)"/>
<path d="" fill="#FFFFFF" transform="translate(0,0)"/>
</svg>
